/vscmnt/brussel_pixiu_data/_data_brussel/112/vsc11236/PredSimResults/SUBJ10opt3D/expIG/worker_10.mot
version=1
nRows=11
nColumns=50
inDegrees=yes
endheader
                time	         pelvis_tilt	         pelvis_list	     pelvis_rotation	           pelvis_tx	           pelvis_ty	           pelvis_tz	       hip_flexion_r	     hip_adduction_r	      hip_rotation_r	        knee_angle_r	       ankle_angle_r	         mtp_angle_r	       hip_flexion_l	     hip_adduction_l	      hip_rotation_l	        knee_angle_l	       ankle_angle_l	         mtp_angle_l	    lumbar_extension	      lumbar_bending	     lumbar_rotation	 ercspn_r/activation	 intobl_r/activation	 extobl_r/activation	    abd_r/activation	    add_r/activation	hamstrings_r/activation	bifemsh_r/activation	glut_max_r/activation	iliopsoas_r/activation	rect_fem_r/activation	  vasti_r/activation	gastroc_r/activation	 soleus_r/activation	tib_ant_r/activation	 ercspn_l/activation	 intobl_l/activation	 extobl_l/activation	    abd_l/activation	    add_l/activation	hamstrings_l/activation	bifemsh_l/activation	glut_max_l/activation	iliopsoas_l/activation	rect_fem_l/activation	  vasti_l/activation	gastroc_l/activation	 soleus_l/activation	tib_ant_l/activation	
          0.98301303	         -5.92285924	         -1.87182381	          8.21681070	          1.47451955	          0.81488623	         -0.01059748	         34.22648581	         -1.18768841	         -7.12604782	         -7.33998722	          4.70793547	          0.29859041	        -17.29728039	         -1.71277122	          2.11828426	         -6.29358609	          4.38688785	         31.90683574	         -7.48228951	          1.10738824	         -7.44552753	          0.13439384	          0.15117698	          0.00999999	          0.00999999	          0.15291412	          0.16855546	          0.34725093	          0.02031253	          0.08771545	          0.00999999	          0.00999999	          0.02397558	          0.00999999	          0.35058507	          0.10022158	          0.00999999	          0.00999999	          0.04159854	          0.00999999	          0.02198220	          0.27135531	          0.01576429	          0.39878899	          0.00999999	          0.00999999	          0.31372274	          0.25237477	          0.02485130	
          0.99284316	         -5.93071206	         -1.87245174	          8.31816494	          1.49156616	          0.81341287	         -0.01060624	         34.11312266	         -0.95344687	         -6.69994665	         -9.00669862	          4.35033510	          0.29416135	        -17.25280797	         -1.82969878	          1.83161421	         -8.38735896	          3.40860726	         33.59574433	         -7.29499115	          1.51256401	         -7.69780230	          0.11547494	          0.12989548	          0.00999999	          0.00999999	          0.24373102	          0.14482756	          0.29836771	          0.09208674	          0.07536757	          0.00999999	          0.00999999	          0.02060049	          0.01331068	          0.38031037	          0.14347506	          0.00999999	          0.00999999	          0.03574263	          0.07160966	          0.03681495	          0.23315607	          0.01354512	          0.40901504	          0.00999999	          0.00999999	          0.26955934	          0.23500875	          0.02135294	
          1.00267329	         -5.92615741	         -1.88171821	          8.37948439	          1.50888024	          0.81205313	         -0.01056529	         33.81114913	         -0.75977631	         -6.14288734	        -10.57680347	          3.88831500	          0.27748563	        -17.04120823	         -1.95271511	          1.49972184	        -10.81774944	          2.37283045	         35.02796568	         -7.08824855	          1.92896043	         -7.91492608	          0.10465411	          0.11160983	          0.00999999	          0.05645261	          0.20942050	          0.12447364	          0.25636587	          0.14721079	          0.06475792	          0.00999999	          0.00999999	          0.01770051	          0.01143691	          0.50557365	          0.16534507	          0.00999999	          0.00999999	          0.03071107	          0.07517750	          0.03163244	          0.20033421	          0.01163834	          0.35143715	          0.00999999	          0.00999999	          0.23161292	          0.21455662	          0.01834704	
          1.01250342	         -5.91340860	         -1.88432897	          8.39374407	          1.52622035	          0.81096698	         -0.01040375	         33.41790500	         -0.56284147	         -5.67314687	        -11.95635675	          3.24344053	          0.26237036	        -16.57934392	         -2.06971113	          1.12654107	        -13.68524688	          1.27270498	         36.06114555	         -6.89119368	          2.32911650	         -8.09338611	          0.12585861	          0.09589829	          0.00999999	          0.11343665	          0.22316002	          0.10695123	          0.22027673	          0.18064674	          0.05564182	          0.00999999	          0.00999999	          0.01520878	          0.00999999	          0.58193855	          0.18890257	          0.00999999	          0.00999999	          0.02638781	          0.06459461	          0.02717948	          0.17213275	          0.00999999	          0.30196463	          0.00999999	          0.00999999	          0.19900830	          0.18435304	          0.01576429	
          1.02233355	         -5.89217387	         -1.87861855	          8.36078031	          1.54339516	          0.81029524	         -0.01013223	         33.06309702	         -0.36596937	         -5.30157421	        -13.40809130	          2.67378480	          0.23988159	        -15.81600032	         -2.18231377	          0.70975599	        -17.04498524	          0.10987060	         36.50072018	         -6.72426145	          2.71351846	         -8.22753665	          0.13662337	          0.08239849	          0.00999999	          0.15904997	          0.28177598	          0.09189549	          0.18926792	          0.20205890	          0.04780900	          0.00999999	          0.02028794	          0.01306781	          0.00999999	          0.60757697	          0.23319659	          0.00999999	          0.00999999	          0.02267314	          0.07706801	          0.02463354	          0.14790127	          0.00999999	          0.25945645	          0.00999999	          0.00999999	          0.17099349	          0.15840129	          0.01354512	
          1.03216368	         -5.86354346	         -1.86689223	          8.28392944	          1.56030696	          0.81015381	         -0.00977579	         32.77444077	         -0.17651660	         -5.02913162	        -15.00144880	          2.36457798	          0.21567745	        -14.72363284	         -2.29777979	          0.24811210	        -20.88607500	         -1.24024860	         36.31426525	         -6.59110551	          3.08490167	         -8.31761235	          0.13816491	          0.07079908	          0.00999999	          0.18969054	          0.31853920	          0.07998607	          0.16262429	          0.20482816	          0.04107883	          0.00999999	          0.07579902	          0.01122822	          0.00999999	          0.61584738	          0.26148394	          0.00999999	          0.00999999	          0.01948140	          0.16858555	          0.02768180	          0.12708091	          0.00999999	          0.22293223	          0.00999999	          0.00999999	          0.14692239	          0.13610281	          0.01163834	
          1.04199381	         -5.83078015	         -1.84307282	          8.16148011	          1.57689549	          0.81065447	         -0.00936664	         32.46457238	          0.00319529	         -4.84256270	        -16.57102573	          2.35483218	          0.19174244	        -13.29371782	         -2.41349642	         -0.26531610	        -25.14006068	         -2.94392322	         35.48825338	         -6.49233277	          3.43739236	         -8.36147302	          0.13035550	          0.06083255	          0.00999999	          0.20368400	          0.33608301	          0.07288925	          0.13973133	          0.19219218	          0.03529608	          0.00999999	          0.11616923	          0.00999999	          0.00999999	          0.58596170	          0.26773283	          0.00999999	          0.00999999	          0.01673896	          0.24084760	          0.02579452	          0.10919147	          0.00999999	          0.19154961	          0.00999999	          0.00999999	          0.12623982	          0.11694334	          0.00999999	
          1.05182394	         -5.79710166	         -1.80473899	          7.99442504	          1.59312558	          0.81181682	         -0.00892926	         32.05968595	          0.18080788	         -4.68977734	        -17.98115792	          2.66860458	          0.17633867	        -11.54891920	         -2.53544772	         -0.82004803	        -29.67759654	         -5.13077124	         34.00490677	         -6.42783949	          3.76894288	         -8.36004396	          0.11200509	          0.05226903	          0.00999999	          0.21449048	          0.34458602	          0.07441756	          0.12006107	          0.16513689	          0.03032738	          0.00999999	          0.14196307	          0.00999999	          0.00999999	          0.50347467	          0.27113029	          0.00999999	          0.00999999	          0.01438258	          0.27725425	          0.02216337	          0.09382036	          0.00999999	          0.16458478	          0.00999999	          0.00999999	          0.10846879	          0.10048099	          0.00999999	
          1.06165408	         -5.76498649	         -1.75055715	          7.78798009	          1.60896636	          0.81357297	         -0.00847234	         31.52438379	          0.36397981	         -4.50947057	        -19.15271378	          3.26177502	          0.18680765	         -9.54120899	         -2.66639735	         -1.37722276	        -34.38039878	         -7.51165103	         31.47226282	         -6.39897737	          4.07463152	         -8.31829857	          0.09623790	          0.04491101	          0.00999999	          0.22570186	          0.30144968	          0.07375950	          0.10315983	          0.14189023	          0.02605813	          0.00999999	          0.17343143	          0.00999999	          0.00999999	          0.43259951	          0.28499404	          0.05123232	          0.00999999	          0.01235792	          0.23822460	          0.01904339	          0.08061308	          0.01354512	          0.14141584	          0.00999999	          0.00999999	          0.09319941	          0.08633607	          0.15979845	
          1.07148421	         -5.73632626	         -1.68919931	          7.55039702	          1.62438387	          0.81578420	         -0.00801103	         30.83215074	          0.56022174	         -4.28703781	        -20.01083539	          4.02435654	          0.24801479	         -7.37096470	         -2.78036973	         -1.87305201	        -39.11748441	         -9.15519722	         27.89206513	         -6.40659812	          4.35641942	         -8.23399093	          0.08269030	          0.03858880	          0.00999999	          0.21796825	          0.26450993	          0.07514385	          0.08863781	          0.12191605	          0.02238988	          0.00999999	          0.19303647	          0.00999999	          0.00999999	          0.37170159	          0.28474555	          0.06040476	          0.00999999	          0.01163834	          0.20468924	          0.01636261	          0.06926501	          0.01163834	          0.12150844	          0.00999999	          0.00999999	          0.08007954	          0.07418237	          0.16477478	
          1.08131434	         -5.71266995	         -1.61882339	          7.28201576	          1.63940557	          0.81839054	         -0.00756976	         29.97054527	          0.76181733	         -4.03452441	        -20.51071993	          4.80921046	          0.35239169	         -5.14326759	         -2.82427665	         -2.28868909	        -43.58182733	         -9.61969353	         24.61670794	         -6.44706327	          4.60971357	         -8.10345152	          0.07104981	          0.03315657	          0.00999999	          0.20025159	          0.22727432	          0.07894870	          0.07616008	          0.10475368	          0.01923801	          0.00999999	          0.19354950	          0.00999999	          0.00999999	          0.31937640	          0.27226527	          0.06032707	          0.00999999	          0.00999999	          0.17587471	          0.01405921	          0.07805183	          0.00999999	          0.10440345	          0.00999999	          0.00999999	          0.08120295	          0.06373956	          0.20632227	
